<?xml version="1.0" encoding="utf-8"?>
<!-- Generator: Adobe Illustrator 22.1.0, SVG Export Plug-In . SVG Version: 6.00 Build 0)  -->
<svg version="1.1" id="Layer_1" xmlns="http://www.w3.org/2000/svg" xmlns:xlink="http://www.w3.org/1999/xlink" x="0px" y="0px"
	 viewBox="0 0 504.9 102.4" style="enable-background:new 0 0 504.9 102.4;" xml:space="preserve">
<style type="text/css">
	.st0{clip-path:url(#SVGID_2_);}
	.st1{clip-path:url(#SVGID_4_);fill:#ED1E2E;}
	.st2{clip-path:url(#SVGID_4_);fill:#FFFFFF;}
</style>
<g id="Vector_Smart_Object_1_">
	<g>
		<defs>
			<rect id="SVGID_1_" x="4" y="3.8" width="497" height="94.1"/>
		</defs>
		<clipPath id="SVGID_2_">
			<use xlink:href="#SVGID_1_"  style="overflow:visible;"/>
		</clipPath>
		<g class="st0">
			<defs>
				<rect id="SVGID_3_" x="4" y="3.8" width="497" height="94.1"/>
			</defs>
			<clipPath id="SVGID_4_">
				<use xlink:href="#SVGID_3_"  style="overflow:visible;"/>
			</clipPath>
			<path class="st1" d="M4,83.7l32.3-36.6h13.2c0.6,0,1.3,0.2,1.9,0.6c0.6,0.4,1.1,0.8,1.5,1.3c0.3,0.5,0.7,0.9,1,1.4
				c0.3,0.5,0.5,1,0.8,1.5c0,0.1,0.2,0.7,0.4,1.7c0.2,1,0.5,2.2,0.9,3.7c0.3,1.5,0.7,3.2,1.2,5.1c0.4,1.9,0.9,3.8,1.3,5.8
				c1,4.6,2.2,9.8,3.5,15.5H43.9L42,76.9l-15-0.2c1.4-1.6,2.7-3.1,3.8-4.4c0.5-0.6,0.9-1.1,1.4-1.6c0.5-0.5,0.9-1,1.3-1.4
				c0.4-0.4,0.8-0.9,1.2-1.4h5.2l-1.9-7.6L17.3,83.7H4z"/>
			<path class="st1" d="M89.4,47.1c-1.2,4.5-2.3,8.6-3.3,12.3c-0.4,1.6-0.8,3.1-1.2,4.6c-0.4,1.5-0.8,2.9-1.1,4.1
				c-0.3,1.2-0.6,2.2-0.8,3.1c-0.2,0.8-0.4,1.3-0.4,1.4c-0.2,0.8-0.2,1.4,0.2,1.8c0.4,0.4,0.8,0.6,1.3,0.6h11.8l8.8-27.8h10.5
				c0.7,0,1.3,0.2,1.8,0.5c0.5,0.3,0.8,0.7,1,1.3c0.2,0.5,0.3,1.1,0.3,1.8c-0.1,0.7-0.3,1.4-0.6,2.1l-9.8,31H70.5
				c-0.9,0-1.7-0.1-2.3-0.3c-0.6-0.2-1.2-0.6-1.5-1c-0.4-0.5-0.6-1-0.7-1.6c-0.1-0.6-0.1-1.2,0.1-1.9c1.5-5.6,2.8-10.7,4-15.2
				c0.5-1.9,1-3.8,1.5-5.7c0.5-1.9,0.9-3.6,1.4-5.1c0.4-1.5,0.8-2.8,1-3.8c0.3-1,0.5-1.7,0.6-1.9H89.4z"/>
			<path class="st1" d="M124.1,47.1c8.5,0,16.1,0.1,22.8,0.1h15.6h5.2c1.3,0,2,0,2-0.1c-0.2,0.6-0.4,1.1-0.5,1.6
				c-0.2,0.5-0.3,1-0.6,1.7c-0.2,0.6-0.4,1.3-0.6,1.9c-0.5,1.5-1,3.3-1.7,5.3h-15.1c-0.5,1.5-0.9,2.8-1.2,4
				c-0.4,1.2-0.8,2.6-1.3,4.2c-0.5,1.6-1,3.2-1.5,4.8c-1.2,3.8-2.5,8.2-4,13.1H128l7.8-26.2h-15.1L124.1,47.1z"/>
			<path class="st1" d="M169.6,83.7c-0.9,0-1.7-0.1-2.3-0.3c-0.6-0.2-1.2-0.6-1.5-1c-0.4-0.5-0.6-1-0.7-1.6
				c-0.1-0.6-0.1-1.2,0.1-1.9c1.3-4.8,2.4-9.2,3.5-13.1c0.5-1.7,0.9-3.3,1.3-5c0.4-1.6,0.8-3.1,1.2-4.4c0.4-1.3,0.7-2.5,0.9-3.4
				c0.2-0.9,0.4-1.5,0.5-1.8c0.6-1.5,1.3-2.5,2.1-3.1c0.9-0.6,1.7-0.9,2.6-0.9h37.1c0.7,0,1.2,0.2,1.7,0.5c0.5,0.3,0.8,0.7,1.1,1.3
				c0.2,0.5,0.3,1.1,0.3,1.8c0,0.7-0.2,1.4-0.6,2.1l-9.8,31H169.6z M186.3,55.8c-0.8,2.9-1.5,5.5-2.1,7.9c-0.3,1-0.6,2-0.8,3
				c-0.3,1-0.5,1.9-0.8,2.7c-0.2,0.8-0.4,1.5-0.6,2.1c-0.2,0.6-0.3,0.9-0.3,1c-0.2,0.8-0.2,1.4,0.2,1.8c0.4,0.4,0.8,0.6,1.3,0.6H195
				l6-19H186.3z"/>
			<path class="st1" d="M213,83.7l9.9-31.2l4.6,19.2l-3.2,12H213z M239.5,47.1c0.4,0,0.8,0.1,1.3,0.3c0.4,0.2,0.8,0.4,1.1,0.8
				c0.3,0.3,0.6,0.7,0.9,1.1c0.2,0.4,0.4,0.8,0.5,1.2l4,16.8l18.5-20.1h19.4l-11.3,36.6h-16.9l3.5-12l-10.8,12h-16.4l-8.5-36.6
				H239.5z"/>
			<path class="st1" d="M277.8,83.7l32.3-36.6h13.2c0.6,0,1.3,0.2,1.9,0.6c0.6,0.4,1.1,0.8,1.5,1.3c0.3,0.5,0.7,0.9,1,1.4
				c0.3,0.5,0.5,1,0.8,1.5c0,0.1,0.2,0.7,0.4,1.7c0.2,1,0.5,2.2,0.9,3.7c0.3,1.5,0.7,3.2,1.2,5.1c0.4,1.9,0.9,3.8,1.3,5.8
				c1,4.6,2.2,9.8,3.5,15.5h-17.9l-1.9-6.7l-15-0.2c1.4-1.6,2.7-3.1,3.8-4.4c0.5-0.6,0.9-1.1,1.4-1.6c0.5-0.5,0.9-1,1.3-1.4
				c0.4-0.4,0.8-0.9,1.2-1.4h5.2l-1.9-7.6l-20.7,23.5H277.8z"/>
			<path class="st1" d="M339,47.1c8.5,0,16.1,0.1,22.8,0.1h8.3h7.3h5.2c1.3,0,2,0,2-0.1c-0.2,0.6-0.4,1.1-0.5,1.6
				c-0.2,0.5-0.3,1-0.5,1.7c-0.2,0.6-0.4,1.3-0.6,1.9c-0.5,1.5-1,3.3-1.7,5.3H366c-0.5,1.5-0.9,2.8-1.2,4c-0.4,1.2-0.8,2.6-1.3,4.2
				c-0.5,1.6-1,3.2-1.5,4.8c-1.1,3.8-2.5,8.2-4,13.1h-15.2l7.8-26.2h-15.1L339,47.1z"/>
			<path class="st2" d="M501,50.8c0,26-21,47-47,47c-26,0-47-21-47-47c0-26,21-47,47-47C480,3.8,501,24.8,501,50.8"/>
			<path class="st1" d="M500.9,52.5c0-0.6,0-1.1,0-1.7c0-1,0-2.1-0.1-3.1H467l0.7-2.4h33c-0.2-1.6-0.5-3.2-0.8-4.8H469l0.6-2.1h29.7
				c-0.5-1.7-1-3.4-1.7-5H471l0.5-1.9h25.3c-0.8-1.8-1.8-3.6-2.8-5.3h-21l0.5-1.7h19.4C484.5,12,470.2,3.8,454,3.8
				c-26,0-47,21-47,47c0,26,21,47,47,47c13.2,0,25-5.4,33.6-14.1H457l1-3.6h32.8c0.9-1.2,1.8-2.3,2.6-3.6H459l0.9-3.3h35.4
				c0.7-1.2,1.3-2.5,1.8-3.8H461v-0.2l0.8-2.9h36.6c0.5-1.3,0.9-2.7,1.2-4.1H463l0.8-2.9h36.5c0.3-1.4,0.5-2.8,0.6-4.2h-35.9
				l0.7-2.6H500.9z M453.6,83.7h-23L444,36.4l-8.3-0.2l3.1-9.9c0,0,29.4-5.8,29.8-5.9c0.5-0.1,1.1-0.2,1.5-0.2c0.4,0,0.7-0.1,0.9,0
				c0.1,0,0.3,0.1,0.2,0.3C471.2,20.6,453.6,83.6,453.6,83.7"/>
		</g>
	</g>
</g>
</svg>
