<svg xmlns="http://www.w3.org/2000/svg" xmlns:xlink="http://www.w3.org/1999/xlink" viewBox="0 0 400 300" width="406" height="306" class="illustration styles_illustrationTablet__1DWOa"><defs><linearGradient id="linear-gradient" x1="206.74" y1="262.88" x2="361.34" y2="145.57" gradientUnits="userSpaceOnUse"><stop offset="0" stop-opacity="0"></stop><stop offset="1" stop-color="#006837"></stop></linearGradient><linearGradient id="linear-gradient-2" x1="363.57" y1="170.35" x2="337.26" y2="195.37" gradientUnits="userSpaceOnUse"><stop offset="0" stop-color="#00a99d"></stop><stop offset="1" stop-color="#fff"></stop></linearGradient><linearGradient id="linear-gradient-3" x1="332.98" y1="161.99" x2="317.35" y2="176.86" xlink:href="#linear-gradient-2"></linearGradient><linearGradient id="linear-gradient-4" x1="86.63" y1="215.33" x2="210.34" y2="102.63" gradientUnits="userSpaceOnUse"><stop offset="0" stop-color="#fff" stop-opacity="0"></stop><stop offset="1" stop-color="#551c00"></stop></linearGradient></defs><title>PP</title><g style="isolation: isolate;"><g id="Layer_2" data-name="Layer 2"><path d="M198.91,288.24,26.41,186.29c-5.49-3.08-10.2-8.15-4.85-11.46L194.69,75c2.6-1.61,6.54-2.66,9.18-1.13L384.94,179c5.49,3.19,6.48,12.1,1,15.29L221.65,288.07A22.94,22.94,0,0,1,198.91,288.24Z" fill="#8ed120"></path><polygon points="41.25 195.06 99.56 229.52 283.45 120.1 228.8 88.39 41.25 195.06" fill="#f4e8e4"></polygon><path d="M253.66,212.64l-23.26,7.56-50.2,30.17c11.68,10,22.64,20.9,34.65,30.44l53-31.63,10.49-19.66Z" fill="url(#linear-gradient)"></path><path d="M267.9,187.43c1.38,14,2.45,42.1,2.45,42.1s5.65,4,10.49,0c0,0,1.61-21.62,1.6-35.07A34.65,34.65,0,0,1,267.9,187.43Z" fill="#ffc6b2"></path><path d="M243.42,140s-.64,19.38,0,25.77,3.41,46.85,3.41,46.85,4.69,4,9.37,0c0,0,3.09-20,2.72-23.85s-1-52.18-1-52.18" fill="#ffc6b2"></path><path d="M274.32,99.78s4.12,7.6,5.42,21.61,2.7,59.93,2.7,59.93l.11,41.84s-9.48,3.5-14-2.14c0,0-1.56-33.66-2.14-35.8s-5.84-51.65-5.84-51.65-1.54,44.24-1.67,48.93-1,25.86-1,25.86-12.82.21-14.8-5c0,0,.62-20.63,0-24.13s-2.88-61.68,0-70.05S245,97.84,245,97.84" fill="#57646d"></path><path d="M243.85,55.55s-9.52,4.57-10.44,25.5c0,0,10,2,14.32.89" fill="#68e1fd"></path><path d="M261.91,244.61a5.49,5.49,0,0,0,1,6.09c2.69,2.87,6.23,1.44,9.21,0s11.42-9,10.26-10.94-1.6-10.23-1.6-10.23" fill="#fff"></path><path d="M270.14,226.72c-.32,1.68-1.55,7.7-3.2,9.86-1.93,2.52-6.5,8.71-5,10.32s2.59-3.21,5-1.83,1.66,4.81,3.42,4.13,10-7.24,10.93-11.42c.68-3.11-.29-8-.83-10.26A21.25,21.25,0,0,1,270.14,226.72Z" fill="#3a4c5a"></path><path d="M252.62,211.6,232.34,224s-.34,4.64,3.87,5.52,9.43-1.68,11.78-2.76,10.94-8.32,10.94-8.32l-.79-7.89A14.37,14.37,0,0,1,252.62,211.6Z" fill="#fff"></path><path d="M245.45,209.73c-1.12,2-3.11,4.92-5.87,6.43a47.75,47.75,0,0,1-4,3.49,9.55,9.55,0,0,0-3.1,4.41c1.09.66,2.74-1.81,4-1.52a1.61,1.61,0,0,1,1,1.32c.38,1.69.95,2.61,2.87,2.7a13.35,13.35,0,0,0,7.58-2.3c1.54-1.1,3-2.32,4.54-3.39s3.3-2.13,4.07-3.88a18.89,18.89,0,0,0,1.36-6.33A15,15,0,0,1,245.45,209.73Z" fill="#3a4c5a"></path><path d="M273.31,93.89a1.89,1.89,0,0,1,1.44-.8c.67-11.13,1.28-26,.12-30-1.92-6.72-12.73-9.13-25-8.77a15.11,15.11,0,0,0-6,1.26c-4.27,6.19-3.32,14.64-2.67,21.74.74,8,.86,22.21,1.44,27.52,6.83,3.53,16.07,3.42,22.8,2.68A73,73,0,0,1,273.31,93.89Z" fill="#fff"></path><path d="M258.29,49.21l.62,6.33s-4.33,2.68-8.13.86l-.52-4" fill="#ffb39c"></path><path d="M262.37,31.45A11.32,11.32,0,0,0,256.11,27s-11.66-2.08-15.3,5.94a79.65,79.65,0,0,0,2,11.92c.47.76,1,1.51,1.48,2.25a11.79,11.79,0,0,0,4.65.26l10.52-.43A83.51,83.51,0,0,0,262.37,31.45Z" fill="#b25222"></path><path d="M241.61,34.57s.73,20.62,9.22,19.65,8-8,8-8S260,33.36,253,30.93,241.61,34.57,241.61,34.57Z" fill="#ffc6b2"></path><path d="M258.29,49.21a7.65,7.65,0,0,0,1.06-.64,28.56,28.56,0,0,0,3.09-14.66c-2.26-3.69-6.54-7.2-10.62-7-5.88.35-11.56,3.45-10.21,7.62,0,0,4.92,7.35,11,6.81S258.29,49.21,258.29,49.21Z" fill="#b25222"></path><path d="M218.64,64.51s.46,7.43,1.31,15.41a15.64,15.64,0,0,0,8.85.3c-2.15-7.7-4.22-15.59-4-16.66.36-2.17,4.5-10.67,2.85-11.19s-3.44,4.62-3.48,3.73-1.47-9.7-3.14-10.46.89,8.42.08,8.3-2.24-9-3.9-8.77,1.6,7.75.65,8-2.6-4.78-3.62-4.25,2.06,4.64,1.51,5.47-4.08-2.2-4-.72,4,4.71,4.42,5.29S218.64,64.51,218.64,64.51Z" fill="#ffc6b2"></path><path d="M273.34,59.69c-4.31-4.54-10.86-4.59-10.86-4.59-2.55,9.21-10.54,20.62-10.54,20.62L245.37,55.1c-5,1.62-8.53,7.12-10.39,12.64-.69,2.06-1.39,8-2,14.65,0,0-6.67-17.92-7.81-18.15s-7.43.63-7.54,1-.42,28.67,5.55,32.55a17.91,17.91,0,0,0,3.84,1.9h.06c3.77,1.2,8.66-.87,10.77-6.13l.38,4.49c.22,3,1.42,19.71,2.37,22.56a25.23,25.23,0,0,0,12.87,3.48c.2-1.29,1.56-3.44,1.65-4.76h0c.33,1.38,3,3.13,3.25,4.52,5.62-.62,16.53-2.42,21.85-4.32,0-.06-2.56-14.3-2.55-14.24.13.76-1.17-13.54-1.56-19.39C275.48,76.52,273.09,69.06,273.34,59.69Z" fill="#3a4c5a"></path><path d="M280.15,90.46c-2,4-4.24,7.87-6.72,12.13l5.34,4.71s5.28-6.73,9.84-13.44C285.76,92.78,282.92,91.7,280.15,90.46Z" fill="#ffc6b2"></path><path d="M280.62,104.91l-3.49,4.63s-1.41,6.31-2.17,8.17c-1.91,4.71-3.93,4.34-5.14,3.72s.68-9.55.68-9.55-3.32,2.94-4.41,1.94,4.59-6.89,4.59-6.89l4.51-7.11" fill="#ffc6b2"></path><path d="M262.48,55.1s22,3.83,33.61,19.72c0,0,1.57.72,1,7.42s-18.24,27.11-18.24,27.11-8.05-6.41-7.46-7.13,10.77-14.05,11.17-16.51-11.17-6.77-11.17-6.77" fill="#3a4c5a"></path><path d="M240.57,35.92c.43-3,12,2,16.59,2.13,1.53,0,2.52,0,2.52,0a8.59,8.59,0,0,1-3.84,3.2c-2.63,1.11-18.7,1.52-19.81-.71s3.55-4.27,3.7-4.65c.37-.9-2.6-11.45,10.53-11.45S266,32.49,265.81,35c-.17,2.38.42,3.43-1.85,4.91S240.14,38.84,240.57,35.92Z" fill="#3a4c5a"></path><path d="M248.86,47.9a15.13,15.13,0,0,0-3.16,1.31c-1.39.92-.86,1.71-.86,1.71.49.34,3.16-.86,4.38-1.51s3.38.86,5.67.57S253,47.19,248.86,47.9Z" fill="#b25222"></path><path d="M252.18,56.88c-.16.11-1.39,2.3-1.39,2.3l1.77,1.4,2-1.31L253.75,57Z" fill="#14222b"></path><polygon points="251.88 60.04 250.09 69.91 251.94 75.73 255.18 70.69 253.4 60.04 251.88 60.04" fill="#14222b"></polygon><path d="M253.4,81.76a1.34,1.34,0,0,0,0,2.68A1.34,1.34,0,0,0,253.4,81.76Z" fill="#8fa9b7"></path><path d="M254.21,90.72a1.34,1.34,0,0,0,0,2.68A1.34,1.34,0,0,0,254.21,90.72Z" fill="#8fa9b7"></path><path d="M254.42,98.05a1.34,1.34,0,0,0,0,2.68A1.34,1.34,0,0,0,254.42,98.05Z" fill="#8fa9b7"></path><path d="M368.34,183.5l-8.6-8.11-39.91,18.85c4.09,2.09,10,5.7,15.79,9.06A291.25,291.25,0,0,0,368.34,183.5Z" opacity="0.68" fill="url(#linear-gradient-2)" style="mix-blend-mode: multiply;"></path><rect x="359.77" y="102.52" width="3.28" height="78.62" fill="#404048"></rect><circle cx="361.15" cy="100.6" r="9.75" fill="#68e1fd"></circle><circle cx="356.75" cy="96.89" r="2.02" fill="#fff"></circle><path d="M368.56,94.26a9.66,9.66,0,0,1-4.93,12.09,9.1,9.1,0,0,1-11.55-2.2,9.75,9.75,0,1,0,16.48-9.88Z" fill="#3e3e4a" opacity="0.4"></path><path d="M365.37,161.09l3.55,21.38s-2.11,1.38-8.71,1.61-6.27-2-6.27-2l3.51-21Z" fill="#3e3e4a"></path><ellipse cx="361.41" cy="161.09" rx="3.96" ry="1.99" fill="#55555f"></ellipse><ellipse cx="361.41" cy="182.62" rx="7.52" ry="3.78" fill="#3e3e4a"></ellipse><path d="M335,169.74l-3.21-4.13-24.44,11c2.39,1.22,5.86,3.32,9.21,5.28C323.22,178.5,328.92,174,335,169.74Z" opacity="0.68" fill="url(#linear-gradient-3)" style="mix-blend-mode: multiply;"></path><rect x="329.25" y="130.29" width="6.02" height="39.93" rx="2.01" ry="2.01" fill="#bc532a"></rect><path d="M347.13,138.46c-1.39-6-7.56-32.58-18.49-24.77-5.6,4-7.18,10.25-9.43,16.36-1.86,5.06-3.4,10.39-3.48,15.82-.18,11,11.06,12.4,19.66,12.36,5,0,12-3,13.19-8.33.7-3.25-.49-7.08-1.19-10.26Q347.27,139,347.13,138.46Z" fill="#2c9135"></path><path d="M347.65,139.63q-.13-.59-.26-1.17c-1.23-5.33-6.2-26.71-14.89-26.18,2.58,11.27,6.39,23.18,4.36,34.71a26.38,26.38,0,0,1-4.6,11.17c1.15.06,2.29.08,3.39.07,5,0,12-3,13.19-8.33C349.54,146.64,348.35,142.82,347.65,139.63Z" fill="#156819"></path><path d="M133.44,154.49l-23.26,7.56L52,197.09c11.68,10,30.59,16,42.6,25.57L200.86,161l-13.71-22.46Z" fill="url(#linear-gradient-4)"></path><path d="M188.38,143.29c-4.17,2-3.27,15.34-3.27,15.34l6.85,4.9,6.58-17.14C194.13,144.2,191.71,144,188.38,143.29Z" fill="#3a4c5a"></path><ellipse cx="195.85" cy="155.26" rx="9.27" ry="7.11" transform="translate(-2.65 307.1) rotate(-75.82)" fill="#3a4c5a"></ellipse><ellipse cx="197.16" cy="155.58" rx="6.71" ry="4.36" transform="translate(-19.44 282.72) rotate(-68.69)" fill="#ecf3ec"></ellipse><ellipse cx="197.24" cy="155.6" rx="4.16" ry="2.79" transform="translate(-8.66 299.54) rotate(-73.23)" fill="#bbc0c6"></ellipse><path d="M67.45,156.56l-2.76-1.36v-.32a1.23,1.23,0,0,0-.76-1.14l-2.25-.93A1.23,1.23,0,0,0,60,154v10.72a1.23,1.23,0,0,0,.79,1.15l2.25.86a1.23,1.23,0,0,0,1.63-.9c.61.3,1.22.59,1.85.85s.9-.5.41-.71c-.76-.32-1.5-.67-2.23-1v-8.78L67,157.27C67.51,157.5,67.93,156.79,67.45,156.56Z" fill="#3a4c5a"></path><path d="M108.58,188.09c-4.17,2-3.27,15.34-3.27,15.34l6.85,4.9,6.58-17.14C114.33,189,111.91,188.8,108.58,188.09Z" fill="#3a4c5a"></path><ellipse cx="116.05" cy="200.05" rx="9.27" ry="7.11" transform="translate(-106.33 263.55) rotate(-75.82)" fill="#3a4c5a"></ellipse><ellipse cx="117.36" cy="200.38" rx="6.71" ry="4.36" transform="translate(-111.97 236.89) rotate(-68.69)" fill="#ecf3ec"></ellipse><ellipse cx="117.44" cy="200.39" rx="4.16" ry="2.79" transform="translate(-108.31 255) rotate(-73.23)" fill="#bbc0c6"></ellipse><path d="M67,148.7l1.4-2.37c4.11-1.82,100.1-54.67,100.1-54.67s5.63-3.24,8.76-4.79a5.3,5.3,0,0,1,5.15.24l24.3,15.05a5,5,0,0,1,3.48,4.77V141.1l2.2.63v5.88l-9.22,5.22s-2-9.43-8.17-6S188.58,161,188.58,161l-64.68,36.74s-2-7.95-7.59-7-6.91,15.09-6.91,15.09l-9.3,5.25" fill="#68e1fd"></path><path d="M71.36,144.78s-5,1.57-5,4.76V191.1l33.7,20,.09-12.16.16-22.44,0-6.32c0-2.36-.4-5,.52-7.21a1.64,1.64,0,0,0-.69-2.08Z" fill="#68e1fd"></path><path d="M71.36,144.78s-5,1.57-5,4.76V191.1l33.7,20,.09-12.16.16-22.44,0-6.32c0-2.36-.4-5,.52-7.21a1.64,1.64,0,0,0-.69-2.08Z" fill="#fff" opacity="0.39"></path><path d="M121.86,155.11v27.56L108,190.31a3.41,3.41,0,0,1-5.05-3v-16.4a9.28,9.28,0,0,1,4.84-8.15Z" fill="#3a4c5a"></path><polygon points="123.89 154.15 143.54 143.73 143.54 171.41 123.89 182.07 123.89 154.15" fill="#3a4c5a"></polygon><polygon points="144.89 142.9 164.54 132.48 164.54 160.16 144.89 170.82 144.89 142.9" fill="#3a4c5a"></polygon><polygon points="165.38 131.88 185.03 121.45 185.03 149.13 165.38 159.8 165.38 131.88" fill="#3a4c5a"></polygon><path d="M187.15,119.69,203,111.27a2.58,2.58,0,0,1,3.79,2.28v21.39a3.35,3.35,0,0,1-1.75,2.95l-17.9,9.71Z" fill="#3a4c5a"></path><path d="M73.76,189.37l13.52,7.89A.75.75,0,0,0,88,196l-13.52-7.89a.75.75,0,0,0-.76,1.3Z" fill="#225870"></path><path d="M73.76,191.68l13.52,7.89a.75.75,0,0,0,.76-1.3l-13.52-7.89a.75.75,0,0,0-.76,1.3Z" fill="#225870"></path><path d="M73.76,193.79l13.52,7.89a.75.75,0,0,0,.76-1.3l-13.52-7.89a.75.75,0,0,0-.76,1.3Z" fill="#225870"></path><path d="M67.66,191.89v-4.84s.1-2.39,2.23-2.16,2.21,2.81,2.21,2.81v6.83Z" fill="#fff"></path><path d="M89.68,204.94v-6.32s.11-2.76,2.58-2.5,2.56,3.24,2.56,3.24V208Z" fill="#fff"></path><path d="M69.52,150.18v23.1a3.91,3.91,0,0,0,2,3.42l21,11.59a2.22,2.22,0,0,0,3.29-1.95h0V165.49Z" fill="#3a4c5a"></path><path d="M92.25,140.63v1.61l14.22,8.64a1.33,1.33,0,0,0,1.36,0l13.28-7.68v-2" fill="#3a4c5a"></path><path d="M106.25,149.2l-13.43-7.94c-.43-.24-.79-.63-.38-.89l13.48-7.77a.76.76,0,0,1,.72-.09l14.1,8.18a.72.72,0,0,1,.08,1.19L108,149.19A1.79,1.79,0,0,1,106.25,149.2Z" fill="#68e1fd"></path><path d="M106.25,149.2l-13.43-7.94c-.43-.24-.79-.63-.38-.89l13.48-7.77a.76.76,0,0,1,.72-.09l14.1,8.18a.72.72,0,0,1,.08,1.19L108,149.19A1.79,1.79,0,0,1,106.25,149.2Z" fill="#fff" opacity="0.39"></path><path d="M157.2,104.48v1.61l14.22,8.64a1.33,1.33,0,0,0,1.36,0l13.28-7.68v-2" fill="#3a4c5a"></path><path d="M171.2,113l-13.43-7.94c-.43-.24-.79-.63-.38-.89l13.48-7.77a.76.76,0,0,1,.72-.09l14.1,8.18a.72.72,0,0,1,.08,1.19L173,113A1.79,1.79,0,0,1,171.2,113Z" fill="#68e1fd"></path><path d="M171.2,113l-13.43-7.94c-.43-.24-.79-.63-.38-.89l13.48-7.77a.76.76,0,0,1,.72-.09l14.1,8.18a.72.72,0,0,1,.08,1.19L173,113A1.79,1.79,0,0,1,171.2,113Z" fill="#fff" opacity="0.39"></path></g></g></svg>