<?xml version="1.0" standalone="no"?>
<!DOCTYPE svg PUBLIC "-//W3C//DTD SVG 20010904//EN"
 "http://www.w3.org/TR/2001/REC-SVG-20010904/DTD/svg10.dtd">
<svg version="1.0" xmlns="http://www.w3.org/2000/svg"
 width="225.000000pt" height="225.000000pt" viewBox="0 0 225.000000 225.000000"
 preserveAspectRatio="xMidYMid meet">

<g transform="translate(0.000000,225.000000) scale(0.100000,-0.100000)"
fill="#000000" stroke="none">
<path d="M1246 1449 c-127 -209 -233 -382 -237 -384 -3 -3 -64 166 -135 375
-82 242 -131 373 -135 362 -336 -871 -538 -1407 -532 -1412 5 -3 20 -11 34
-17 l25 -11 224 602 c123 330 226 604 229 608 4 4 45 -219 91 -497 47 -278 87
-505 90 -505 3 0 124 119 268 263 l263 264 279 -390 c266 -370 300 -410 288
-339 -5 31 -512 1462 -518 1461 -3 0 -108 -171 -234 -380z"/>
</g>
</svg>
