<svg xmlns="http://www.w3.org/2000/svg" viewBox="0 0 400 300" width="406" height="306" class="illustration styles_illustrationTablet__1DWOa"><g id="_321_travel_plans_outline" data-name="#321_travel_plans_outline"><path d="M98.32,75.08H301.68A14.11,14.11,0,0,1,315.8,89.19V210.51a0,0,0,0,1,0,0H84.21a0,0,0,0,1,0,0V89.19A14.11,14.11,0,0,1,98.32,75.08Z" fill="#fff"></path><path d="M315.8,211.51H84.21a1,1,0,0,1-1-1V89.19A15.12,15.12,0,0,1,98.32,74.08H301.68A15.13,15.13,0,0,1,316.8,89.19V210.51A1,1,0,0,1,315.8,211.51Zm-230.59-2H314.8V89.19a13.13,13.13,0,0,0-13.12-13.11H98.32A13.12,13.12,0,0,0,85.21,89.19Z" fill="#093f68"></path><path d="M156.56,199.26a3.62,3.62,0,0,1-2-.79L150.94,196a8.65,8.65,0,0,1-2.81-2.7,8.49,8.49,0,0,1-.88-3.57l-1.5-16A2.66,2.66,0,0,0,144.2,171l-.2-.14a18.58,18.58,0,0,1-5.18-5.42,6.62,6.62,0,0,1-1.12-3.07,7.46,7.46,0,0,1,.86-3.36c.13-.3.26-.59.38-.88a19.65,19.65,0,0,0,.83-3.4,24.44,24.44,0,0,1,.76-3.24c.76-2.3,2.71-5,5.69-5a8.32,8.32,0,0,1,4.42,1.72,7.89,7.89,0,0,0,3,1.41,9.45,9.45,0,0,0,1,.05,7.08,7.08,0,0,1,1.43.1c2.25.42,3.55,2.2,4.7,3.78a17.18,17.18,0,0,0,1.26,1.6,7.77,7.77,0,0,0,5.37,2.45h0c2.62.16,4.28,1.23,4.56,2.93a4.38,4.38,0,0,1-1,3.12,3.47,3.47,0,0,0-.76,1.64,3.52,3.52,0,0,0,.22.93,5.27,5.27,0,0,1,.31,1.23c.21,2-1.29,3.51-2.51,4.71a53.29,53.29,0,0,0-8.61,12.15,18.57,18.57,0,0,0-1.65,3.53,9.64,9.64,0,0,0,.26,6.36l.15.36a6,6,0,0,1,.56,2,2.55,2.55,0,0,1-1.79,2.7A1.78,1.78,0,0,1,156.56,199.26Zm-10.3-50.82h0c-1.8,0-3.21,1.84-3.81,3.65a20.79,20.79,0,0,0-.69,3,20.38,20.38,0,0,1-.94,3.75c-.12.33-.26.65-.4,1a5.93,5.93,0,0,0-.71,2.46,4.66,4.66,0,0,0,.83,2.11,16.46,16.46,0,0,0,4.61,4.83l.19.14a5.43,5.43,0,0,1,1.69,1.54,5.51,5.51,0,0,1,.73,2.66l1.5,16a6.87,6.87,0,0,0,.63,2.77,7,7,0,0,0,2.22,2l3.6,2.5c.19.14.7.5.91.44s.28-.33.27-.65a4.42,4.42,0,0,0-.41-1.32l-.17-.39a11.57,11.57,0,0,1-.31-7.7,20.06,20.06,0,0,1,1.81-3.91,54.52,54.52,0,0,1,8.94-12.58c1-1,2.05-2,1.94-3.1a4.22,4.22,0,0,0-.21-.81,4.9,4.9,0,0,1-.33-1.56,5,5,0,0,1,1.09-2.74c.42-.65.79-1.21.71-1.7-.13-.81-1.49-1.18-2.71-1.26h0a9.66,9.66,0,0,1-6.7-3.08,19.1,19.1,0,0,1-1.42-1.78c-1-1.4-2-2.72-3.44-3a6.29,6.29,0,0,0-1.09-.06,10.45,10.45,0,0,1-1.22-.07,9.48,9.48,0,0,1-3.79-1.71A6.57,6.57,0,0,0,146.26,148.44Z" fill="#dfeaef"></path><path d="M139.45,149.79c-1.38,0-2.9-1.21-4-2.07-.19-.15-.35-.28-.48-.37a15.55,15.55,0,0,0-5.41-2.51l-.37-.09A7.62,7.62,0,0,1,127,144a7.42,7.42,0,0,1-2.11-2.2l-5.24-7.31c-2.57-3.59-5-7.81-3.4-11.85a13.77,13.77,0,0,1,2-3.2c1-1.33,1.95-2.58,1.91-4a3.12,3.12,0,0,0-1.11-2.17,5.32,5.32,0,0,0-3.8-1.25c-2.53.22-4.85,1.88-6.9,3.34a2.68,2.68,0,0,1-2,.64,2.21,2.21,0,0,1-1.51-1.14c-1-1.67-.31-3.84,1.82-6a49.93,49.93,0,0,1,5.8-5,16.53,16.53,0,0,1,6-3,17.1,17.1,0,0,1,5.48,0,63.35,63.35,0,0,1,8.44,1.57l1.73.47a34.49,34.49,0,0,0,5.81,1.24,10,10,0,0,0,6.85-1.51l.18-.14c.83-.62,1.95-1.46,3.28-1a3.37,3.37,0,0,1,1.27,1c.53.57,1.94,2.11,1.3,3.79A3.76,3.76,0,0,1,151,108.1l-4.25,2.47a3.76,3.76,0,0,0-1.7,1.46,1.39,1.39,0,0,0,.07,1.09,2.11,2.11,0,0,0,1.23,1.1,3.86,3.86,0,0,0,3.33-.82,14.82,14.82,0,0,0,2.43-2.5l.5-.61c1.29-1.53,2.77-2,3.95-1.34a3.21,3.21,0,0,1,1.2,1.47,2.09,2.09,0,0,0,.42.66c.21.15.63.06,1.25-.09a4.73,4.73,0,0,1,2.14-.15c1.88.43,2.77,2.47,2.36,5.46a4.87,4.87,0,0,1-1.1,2.89,4.81,4.81,0,0,1-3.45,1.15,4.13,4.13,0,0,0-2,.43,3.71,3.71,0,0,0-1,1.54,8.42,8.42,0,0,1-.92,1.61,8.24,8.24,0,0,1-3.92,2.33c-1.29.47-2.5.91-3.09,1.85a5.69,5.69,0,0,0-.52,1.29,6,6,0,0,1-1.06,2.19,6.39,6.39,0,0,1-1.73,1.29,3.32,3.32,0,0,0-1.31,1,5.73,5.73,0,0,0-.36,1c-.28.92-.76,2.44-2.36,2.4a2.46,2.46,0,0,1-1.79-1,13.08,13.08,0,0,1-1-1.3c-.62-.92-1.15-1.71-1.92-1.88a2.09,2.09,0,0,0-2,1,6.07,6.07,0,0,0-.86,2.86q-.21,2,.54,2.61a3.31,3.31,0,0,0,2,.34,7.24,7.24,0,0,1,2.32.23,5,5,0,0,1,3.15,3.94h0c0,.19.82,4.59-1.22,5.57A2,2,0,0,1,139.45,149.79ZM115.65,110a7.34,7.34,0,0,1,4.74,1.76,5,5,0,0,1,1.77,3.6c.07,2.1-1.13,3.7-2.3,5.24a11.67,11.67,0,0,0-1.72,2.73c-1.24,3.14.79,6.64,3.16,10l5.23,7.31a4,4,0,0,0,3.14,2.18l.39.09a17.64,17.64,0,0,1,6.12,2.84l.55.43c1.83,1.46,2.51,1.69,2.75,1.63a7.2,7.2,0,0,0,.1-3.4,3.08,3.08,0,0,0-1.79-2.41,5.57,5.57,0,0,0-1.68-.13,4.91,4.91,0,0,1-3.27-.77c-1.09-.86-1.51-2.3-1.29-4.39a8.1,8.1,0,0,1,1.2-3.79,4,4,0,0,1,4.06-1.78c1.54.34,2.39,1.6,3.14,2.71a11.58,11.58,0,0,0,.81,1.12c.24.27.35.3.36.3a5.56,5.56,0,0,0,.36-1,7.19,7.19,0,0,1,.52-1.33,4.89,4.89,0,0,1,2.07-1.79,4.79,4.79,0,0,0,1.2-.85,4.42,4.42,0,0,0,.67-1.5,8,8,0,0,1,.73-1.74c1-1.53,2.63-2.13,4.11-2.67a6.45,6.45,0,0,0,3-1.69,6.1,6.1,0,0,0,.69-1.22,5.38,5.38,0,0,1,1.69-2.33,5.75,5.75,0,0,1,3.09-.79,3.26,3.26,0,0,0,2.12-.54A3.3,3.3,0,0,0,162,116c.15-1.11.14-3-.82-3.25a3.27,3.27,0,0,0-1.24.15,3.34,3.34,0,0,1-2.87-.23,3.48,3.48,0,0,1-1-1.39,1.89,1.89,0,0,0-.43-.64c-.2-.12-.81.18-1.41.9l-.49.59a16.57,16.57,0,0,1-2.78,2.84,5.85,5.85,0,0,1-5.13,1.12,4.14,4.14,0,0,1-2.43-2.16,3.31,3.31,0,0,1-.11-2.7,5.56,5.56,0,0,1,2.54-2.43l4.25-2.47c.34-.2.85-.49,1-.79s-.17-.94-.9-1.74a2.12,2.12,0,0,0-.5-.44c-.29-.11-.92.36-1.38.7l-.19.15a12,12,0,0,1-8.23,1.9,37.51,37.51,0,0,1-6.15-1.31l-1.7-.46a59.65,59.65,0,0,0-8.17-1.52,14.68,14.68,0,0,0-4.83,0,14.45,14.45,0,0,0-5.27,2.68,45.9,45.9,0,0,0-5.57,4.76c-.53.53-2.2,2.34-1.5,3.55a.43.43,0,0,0,.15.17,2.83,2.83,0,0,0,.49-.3c2.26-1.61,4.82-3.43,7.89-3.7Z" fill="#dfeaef"></path><path d="M147,144.4l-.33,0a3.27,3.27,0,0,1-1.27-.6l-2.83-2a.91.91,0,0,1-.2-.19,1.45,1.45,0,0,1-.31-1.16,1.71,1.71,0,0,1,.75-1.13,2.41,2.41,0,0,1,1.56-.3,7.44,7.44,0,0,1,4.89,2.57,1,1,0,0,1-.12,1.41.76.76,0,0,1-.19.12,2.2,2.2,0,0,1-.43.63A2.18,2.18,0,0,1,147,144.4Zm-1.74-3.17,1.29.9a1.79,1.79,0,0,0,.46.27.36.36,0,0,0,.13-.12A5.29,5.29,0,0,0,145.28,141.23Z" fill="#dfeaef"></path><path d="M169.3,112.84a2.57,2.57,0,0,1-2.13-.94,2.61,2.61,0,0,1-.51-1.55,9.3,9.3,0,0,1,.51-2.93c.4-1.37.61-2.25.15-2.92a3.67,3.67,0,0,0-1.38-1l-.71-.39c-1.13-.67-2.27-2-1.81-3.53.56-1.83,2.8-2,3.54-2.09l12.78-1.08c2-.17,4.64-.4,6.39.83a2.7,2.7,0,0,1,1.26,1.83c.14,1.14-.62,2-1.36,2.9a7.81,7.81,0,0,0-.95,1.28c-.14.27-.27.55-.41.84-.69,1.46-1.47,3.12-3.23,3.71a5.85,5.85,0,0,1-2,.23c-.3,0-.61,0-.91,0-1.38.15-2.59,1.12-3.86,2.15-1.44,1.16-2.92,2.36-4.87,2.59Zm12.87-14.55c-.79,0-1.6.07-2.26.12L167.13,99.5c-1.42.12-1.74.47-1.8.67s.31.86.92,1.23c.2.12.41.23.62.34a5.41,5.41,0,0,1,2.11,1.63c1,1.49.54,3.15.11,4.61a7.78,7.78,0,0,0-.43,2.29.7.7,0,0,0,.1.42,1,1,0,0,0,.78.13c1.38-.16,2.57-1.13,3.84-2.15,1.44-1.17,2.93-2.37,4.9-2.59a11,11,0,0,1,1.15,0,4.25,4.25,0,0,0,1.37-.12c.95-.32,1.49-1.47,2.06-2.68.15-.3.29-.61.44-.9h0a9.4,9.4,0,0,1,1.2-1.66c.38-.43.94-1.09.9-1.35,0-.06-.1-.22-.42-.44A5.12,5.12,0,0,0,182.17,98.29Z" fill="#dfeaef"></path><path d="M210.44,185.7a6.59,6.59,0,0,1-1.59-.19,6.85,6.85,0,0,1-4.93-5.16,12.34,12.34,0,0,1-.17-1.24,5.31,5.31,0,0,0-.38-1.75,4.87,4.87,0,0,0-.44-.68,8.61,8.61,0,0,1-.59-.92,7.54,7.54,0,0,1-.61-2.32l-.66-4.79a4.06,4.06,0,0,1,.45-3,3.61,3.61,0,0,1,.67-.68,2.16,2.16,0,0,0,.34-.33c.41-.53-.1-1.61-.79-2.34l-.43-.44a5.65,5.65,0,0,1-2-3.51,5.88,5.88,0,0,1,.14-1.43,2,2,0,0,0,0-1.2c-.14-.24-.62-.39-1.4-.44a24.75,24.75,0,0,0-5.09.22l-.57.08a9.87,9.87,0,0,1-3.76.1c-3.15-.68-5-3.92-5.44-6.82a25.36,25.36,0,0,1-.1-5.07c.05-1.08.1-2.1.07-3.12l0-.32a5.53,5.53,0,0,1,1.76-4.9h0c5.33-6.07,10.49-8.23,14.93-6.26a11.17,11.17,0,0,1,3.13,2.36,11.39,11.39,0,0,0,2.22,1.8,2.68,2.68,0,0,0,3-.12,5.44,5.44,0,0,1,3.67-.66,11.5,11.5,0,0,1,6.66,4.61,33,33,0,0,1,3.44,6.37l.22.48c1.11,2.46,2.43,4.83,4.59,5.5l.19.06c1,.31,2.72.82,2.69,2.48a2.65,2.65,0,0,1-.48,1.36,28.05,28.05,0,0,1-3.09,3.87c-.57.63-1.13,1.26-1.67,1.91-1.78,2.19-2.62,4.15-2.56,6a11.46,11.46,0,0,0,.16,1.49,8.57,8.57,0,0,1,.08,3.08,8.45,8.45,0,0,1-1.89,3.38,15.41,15.41,0,0,0-1,1.43,13.68,13.68,0,0,0-1.3,3.68,12.24,12.24,0,0,1-2.18,5.09A6.86,6.86,0,0,1,210.44,185.7Zm-13.91-32.49c.54,0,1.08,0,1.62,0a3.59,3.59,0,0,1,3,1.4,3.54,3.54,0,0,1,.22,2.59,4.27,4.27,0,0,0-.1.95,4,4,0,0,0,1.47,2.23c.15.16.31.31.45.47,1.3,1.37,2.08,3.43.92,4.93a4.13,4.13,0,0,1-.62.63,2.42,2.42,0,0,0-.36.34,2.48,2.48,0,0,0-.08,1.57l.67,4.79a5.18,5.18,0,0,0,.41,1.69,4.33,4.33,0,0,0,.43.66,5.47,5.47,0,0,1,1.17,3.39c0,.35.08.7.15,1a4.71,4.71,0,0,0,8.23,2.08,10.64,10.64,0,0,0,1.77-4.29,15.2,15.2,0,0,1,1.52-4.21,15.6,15.6,0,0,1,1.18-1.64A4.74,4.74,0,0,0,220,167a13.68,13.68,0,0,1-.18-1.73c-.07-2.34.92-4.73,3-7.31.56-.69,1.16-1.35,1.73-2a25.89,25.89,0,0,0,2.88-3.59,1.53,1.53,0,0,0,.18-.34,4.11,4.11,0,0,0-1.27-.53l-.2-.06c-2.92-.9-4.53-3.7-5.83-6.59l-.21-.48a31.88,31.88,0,0,0-3.22-6,9.52,9.52,0,0,0-5.46-3.85A3.51,3.51,0,0,0,209,135a4.6,4.6,0,0,1-4.8.06,12.75,12.75,0,0,1-2.64-2.11,9.7,9.7,0,0,0-2.57-2c-4.49-2-9.33,2-12.6,5.75h0a5.24,5.24,0,0,0-1.16,1.71,5.12,5.12,0,0,0-.11,1.78v.34c.05,1.1,0,2.21-.06,3.29a23.37,23.37,0,0,0,.08,4.67c.34,2.22,1.67,4.69,3.88,5.17a8.72,8.72,0,0,0,3-.12l.59-.09A26.45,26.45,0,0,1,196.53,153.21Z" fill="#dfeaef"></path><path d="M224.09,177.31a2.56,2.56,0,0,1-.62-.07,1.93,1.93,0,0,1-1-.53A2.14,2.14,0,0,1,222,176a5.5,5.5,0,0,1,1.21-5.86l.11-.11a1.64,1.64,0,0,0,.23-.23v-.5a4.49,4.49,0,0,1,1.69-3.14,2.9,2.9,0,0,1,2.4-.63,2.47,2.47,0,0,1,1.58,1.1c.82,1.32.46,3.3.27,4.09a14,14,0,0,1-1.46,3.46,7.5,7.5,0,0,1-1.58,2.15A3.7,3.7,0,0,1,224.09,177.31Zm-.17-2h0Zm0-.07a1.6,1.6,0,0,0,1.28-.44,6,6,0,0,0,1.15-1.6,12.68,12.68,0,0,0,1.27-3,3.91,3.91,0,0,0,0-2.54.41.41,0,0,0-.3-.21,1,1,0,0,0-.75.25,2.5,2.5,0,0,0-.92,1.63h0v.16a2.75,2.75,0,0,1-.15,1,2.7,2.7,0,0,1-.7.92l-.09.09a3.5,3.5,0,0,0-.76,3.67Zm.7-5.93h0Z" fill="#dfeaef"></path><path d="M264.55,151.44c-1.38,0-3-.86-4.54-2.52l-3.91-4.13c-1.28-1.34-3.14-2.61-4.18-1.78-.7.56-.7,1.75-.7,3v.68a5.07,5.07,0,0,1-1.61,3.7,2.52,2.52,0,0,1-2.15.54,3.65,3.65,0,0,1-1.78-1,16.75,16.75,0,0,1-5.05-9,2.1,2.1,0,0,0-.28-.89,1.87,1.87,0,0,0-.67-.26l-.18-.05a17.27,17.27,0,0,1-3-1.29,18.57,18.57,0,0,0-2.15-1,4.93,4.93,0,0,0-3-.18l1.7,1.06a1,1,0,0,1,.47.72,5.63,5.63,0,0,1-8.53,5.51,10.16,10.16,0,0,1-3-3.44L216.79,133a3.66,3.66,0,0,0-1.15-1.32,3.9,3.9,0,0,0-.77-.24,5.08,5.08,0,0,1-1.32-.46,2.42,2.42,0,0,1-1.2-2,1.62,1.62,0,0,1,0-.22,11.41,11.41,0,0,0-7.52-.88l-.44.11a6.07,6.07,0,0,1-2.87.21,6.43,6.43,0,0,1-1.73-.81c-.13-.09-.27-.17-.41-.25a7,7,0,0,0-7.87.76,1,1,0,0,1-.86.22,1,1,0,0,1-.69-.54c-1.39-2.88-1.11-5.33.72-6.26a5.12,5.12,0,0,1,1.07-.35,1.89,1.89,0,0,0,.69-.25c.1-.13-.09-.68-.22-1.05A6.41,6.41,0,0,1,192,119a2.6,2.6,0,0,1,1-2.72,1.55,1.55,0,0,1,1.87.12.49.49,0,0,1,.12.13l6.37-1.84c1.26-.37,2.55-1.1,2.39-1.85a.59.59,0,0,0-1.17.17,1,1,0,0,1-.43.89,1,1,0,0,1-1,.09l-5.09-2.35a1,1,0,0,1-.56-.71,1,1,0,0,1,.23-.87,40.76,40.76,0,0,1,5.58-5.17c1.58-1.21,5.57-3.77,8.64-1.44a8,8,0,0,1,.84.78,4.77,4.77,0,0,0,.78.69,4.51,4.51,0,0,0,1.75.44l.17,0a23.29,23.29,0,0,0,6.55.17,9.38,9.38,0,0,0,2.85-1.15,13.65,13.65,0,0,1,2.53-1.14,13.5,13.5,0,0,1,4.46-.42c1.81,0,3.37.08,5.07-1,.52-.33,1-.7,1.44-1.05,1.37-1.07,2.78-2.18,5.14-2,2.61.17,4.86,1.72,7,3.21a24.27,24.27,0,0,0,3.21,2c5.21,2.46,11,1.69,17.2.86,5.47-.73,11.13-1.48,16.44.18a5.91,5.91,0,0,1,3.62,2.88,2.76,2.76,0,0,1,0,2.38,4.33,4.33,0,0,1-1.42,1.54c-.15.12-.3.24-.43.36a3.9,3.9,0,0,0-.65,4.87,1,1,0,0,1,.06,1,1,1,0,0,1-.87.54A8.11,8.11,0,0,1,278,112.8a4.78,4.78,0,0,0-2.23-.16c-.6.15-1.22.73-1.12,1.26s.61.8,1.46,1.29a3.73,3.73,0,0,1,2.47,4.52L276.79,132a1,1,0,0,1-.64.79,1,1,0,0,1-1-.17,18.2,18.2,0,0,1-3.64-4.23,4.1,4.1,0,0,0,.06,3.2,15.41,15.41,0,0,0,1,1.9,12.21,12.21,0,0,1,1.5,3.57,3.62,3.62,0,0,1-1,3.51c-1.12.95-2.53.72-3.66.54a3.52,3.52,0,0,0-2,0c-1.17.64-.38,3.14-.21,3.63.37,1.09,1.51,4.41-.72,6.06A3.09,3.09,0,0,1,264.55,151.44Zm-11.84-10.7c1.47,0,3.16.91,4.84,2.67l3.91,4.13c.42.44,2.55,2.57,3.77,1.67.7-.51.7-1.79,0-3.8-1-2.89-.58-5.08,1.13-6a5,5,0,0,1,3.34-.24c1,.17,1.66.25,2-.08a1.8,1.8,0,0,0,.3-1.62,10.31,10.31,0,0,0-1.28-3,20,20,0,0,1-1.07-2.12c-.92-2.27-.67-5.29,1.58-6.45a1,1,0,0,1,1.35.43,16.09,16.09,0,0,0,2.44,3.47l1.5-10.37a3,3,0,0,0,0-1.23c-.18-.5-.83-.88-1.51-1.28a4.16,4.16,0,0,1-2.42-2.65,3.28,3.28,0,0,1,2.6-3.57,7.56,7.56,0,0,1,3.8.31,1,1,0,0,1,.73.79,6.12,6.12,0,0,0,4.33,4.6,6,6,0,0,1,1.74-5.72c.17-.15.36-.29.54-.44a2.88,2.88,0,0,0,.84-.83.8.8,0,0,0,0-.71,4,4,0,0,0-2.38-1.77c-4.89-1.53-10.33-.81-15.58-.11-6.19.83-12.58,1.68-18.33-1a26.92,26.92,0,0,1-3.49-2.15c-1.95-1.34-4-2.73-6-2.86-1.6-.1-2.52.62-3.78,1.61-.5.39-1,.79-1.6,1.17a10,10,0,0,1-6.19,1.32,11.67,11.67,0,0,0-3.84.34,12,12,0,0,0-2.17,1,11.1,11.1,0,0,1-3.44,1.36,24.39,24.39,0,0,1-7.14-.15l-.17,0h0a6.15,6.15,0,0,1-2.55-.71,6.52,6.52,0,0,1-1.17-1,6.67,6.67,0,0,0-.62-.59c-2-1.53-5.27.71-6.21,1.44a38.69,38.69,0,0,0-4.38,3.92l2.78,1.28a2.6,2.6,0,0,1,1.87-1.28,2.64,2.64,0,0,1,2.9,2c.38,1.79-1.07,3.4-3.8,4.19l-6.56,1.91a2.07,2.07,0,0,1-1.44-.13.25.25,0,0,0,0,.09c0,.17.11.35.17.54a3,3,0,0,1-.06,2.89,3,3,0,0,1-1.83,1,2.72,2.72,0,0,0-.64.19c-.66.33-.58,1.43-.26,2.47a9.13,9.13,0,0,1,9.06-.18l.46.28a4.23,4.23,0,0,0,1.15.57,4.31,4.31,0,0,0,1.92-.21l.48-.11a13.39,13.39,0,0,1,9.8,1.56,1,1,0,0,1,.18,1.57.54.54,0,0,0,.14.18,3.53,3.53,0,0,0,.81.25,5.55,5.55,0,0,1,1.23.41,5.46,5.46,0,0,1,1.92,2l5.14,8.08a8.64,8.64,0,0,0,2.41,2.81,3.62,3.62,0,0,0,5.52-3.1L229,138.14a1,1,0,0,1-.46-.69,1,1,0,0,1,.23-.8c1.6-1.9,4.38-1.77,6.28-1.09a19.86,19.86,0,0,1,2.38,1.09,15.37,15.37,0,0,0,2.64,1.14l.16.05a3.37,3.37,0,0,1,1.56.76,3.31,3.31,0,0,1,.82,1.87,14.75,14.75,0,0,0,4.46,8,2,2,0,0,0,.81.54.56.56,0,0,0,.51-.14,3.14,3.14,0,0,0,.86-2.17V146c0-1.53,0-3.43,1.46-4.58A3.14,3.14,0,0,1,252.71,140.74Z" fill="#dfeaef"></path><path d="M284.7,191.41a2.22,2.22,0,0,1-.57-.07,1,1,0,0,1-.76-.92,3.88,3.88,0,0,0-1.23-2.65l-.38-.32a5.48,5.48,0,0,1-1-1,6.5,6.5,0,0,1-.89-1.89c-.3-.84-.5-1.35-.85-1.43a2.22,2.22,0,0,0-.93.2,5,5,0,0,1-.62.2,8.47,8.47,0,0,1-2.64.15,4.71,4.71,0,0,0-2.33.22,6.54,6.54,0,0,0-.93.6c-.93.67-2.19,1.57-3.57.78s-1.39-2.54-.79-3.82a8.92,8.92,0,0,1,.49-.91,3.92,3.92,0,0,0,.59-1.35,4.08,4.08,0,0,0-.1-1.11c-.05-.26-.1-.53-.13-.79a5.75,5.75,0,0,1,2.53-5.29,10.51,10.51,0,0,1,2.52-1.09,5.08,5.08,0,0,0,2.63-1.43,5.16,5.16,0,0,0,.5-.91,4.54,4.54,0,0,1,1.37-1.93,4.77,4.77,0,0,1,2.29-.75,2.74,2.74,0,0,0,1.42-.44,2.82,2.82,0,0,0,.5-.8,3.23,3.23,0,0,1,1.61-1.79,2.19,2.19,0,0,1,2,.17,4.22,4.22,0,0,1,1.75,3.09h0c0,.16,0,.33.05.53,0,.65.13,1.87.55,2.12a.57.57,0,0,0,.56.06,1.06,1.06,0,0,0,.59-.73,9,9,0,0,0,.18-.9,4.44,4.44,0,0,1,1.19-2.77,1,1,0,0,1,1.08-.17c1.75.78,2.78,2.65,3.07,5.54l.06.64c.14,1.59.27,3.09,1.14,4.1.13.15.27.28.41.42a4.08,4.08,0,0,1,1.17,1.67,3.93,3.93,0,0,1-.71,3.21,17.55,17.55,0,0,1-4.22,4.58c-.36.27-.73.52-1.1.78a9.18,9.18,0,0,0-2.81,2.55,6.52,6.52,0,0,0-.43.83,9.19,9.19,0,0,1-.76,1.35A3.22,3.22,0,0,1,284.7,191.41Zm-5.76-10.25a2.46,2.46,0,0,1,.53.06c1.48.31,1.94,1.65,2.31,2.73a5.82,5.82,0,0,0,.6,1.34,4.87,4.87,0,0,0,.65.61c.16.13.32.26.47.4a5.89,5.89,0,0,1,1.71,2.91,1.89,1.89,0,0,0,.4-.4,6.87,6.87,0,0,0,.57-1.05c.17-.34.33-.68.53-1a10.9,10.9,0,0,1,3.38-3.15c.35-.24.7-.49,1-.74a15.35,15.35,0,0,0,3.74-4.05c.44-.7.6-1.2.49-1.54a2.37,2.37,0,0,0-.66-.84c-.18-.18-.36-.35-.52-.54-1.29-1.49-1.47-3.48-1.63-5.23l-.06-.63a6,6,0,0,0-1.18-3.38,6.82,6.82,0,0,0-.18.92c-.07.37-.13.75-.23,1.11a3.08,3.08,0,0,1-1.79,2.05,2.57,2.57,0,0,1-2.33-.2c-1.3-.79-1.43-2.54-1.51-3.7,0-.17,0-.33,0-.47a2.35,2.35,0,0,0-.8-1.58.21.21,0,0,0-.21,0c-.2.08-.38.44-.57.83a4.67,4.67,0,0,1-.91,1.37,4.35,4.35,0,0,1-2.51,1,3.29,3.29,0,0,0-1.39.38,3,3,0,0,0-.75,1.17,7.94,7.94,0,0,1-.7,1.25,6.82,6.82,0,0,1-3.61,2.14,8.81,8.81,0,0,0-2.06.87,3.71,3.71,0,0,0-1.63,3.4c0,.22.07.43.1.65a5.26,5.26,0,0,1,.12,1.71,5.48,5.48,0,0,1-.85,2.11c-.14.24-.28.49-.4.74-.24.53-.22,1.13,0,1.25s.73-.19,1.4-.67a8.93,8.93,0,0,1,1.21-.78,6.49,6.49,0,0,1,3.33-.42,6.59,6.59,0,0,0,2-.08l.48-.15A4.41,4.41,0,0,1,278.94,181.16Z" fill="#dfeaef"></path><path d="M289.61,163.5a2.86,2.86,0,0,1-2.52-1.25,3.64,3.64,0,0,1-.4-1.07,2,2,0,0,0-.14-.48,2.31,2.31,0,0,0-.82-.64,4.41,4.41,0,0,1-1.42-1.14,1.34,1.34,0,0,1,1.19-2.18l2.05-.08a6.41,6.41,0,0,1,3.85.69,5.49,5.49,0,0,1,1.71,1.91,8.08,8.08,0,0,1,1.13,2.8,1,1,0,0,1-.31.88,1,1,0,0,1-.9.25,4.55,4.55,0,0,0-1.89.1c-.34.07-.68.13-1,.18Zm-2.33-4.83a3.07,3.07,0,0,1,1,1.1,3.43,3.43,0,0,1,.32.95,2.22,2.22,0,0,0,.15.49c.13.22.58.33,1.08.27h0q.47-.06.9-.15a8.88,8.88,0,0,1,1.09-.17,9.1,9.1,0,0,0-.47-.88,3.71,3.71,0,0,0-1.06-1.25,4.79,4.79,0,0,0-2.7-.37Z" fill="#dfeaef"></path><path d="M271.43,159.72c-1.62,0-3.27-.55-3.93-1.67-.41-.69-.76-2.1,1.46-3.8l.53-.38a5.46,5.46,0,0,0,1.05-.87,5.37,5.37,0,0,0,.6-1,7.58,7.58,0,0,1,.8-1.37,3.16,3.16,0,0,1,2.3-1.18,2.06,2.06,0,0,1,1.66.74,1,1,0,0,1,.13,1.09,3.44,3.44,0,0,0-.13,2.81,2.42,2.42,0,0,1,.22,1,2.19,2.19,0,0,1-.5,1.23,9.52,9.52,0,0,0-1.22,2.37,1,1,0,0,1-.54.59A6.12,6.12,0,0,1,271.43,159.72Zm2-1.38h0Zm.34-6.76a1,1,0,0,0-.29.25,6,6,0,0,0-.58,1,7,7,0,0,1-.85,1.43,7.1,7.1,0,0,1-1.44,1.24l-.46.33c-.86.66-1,1.09-1,1.19.31.53,2.12.91,3.46.53a10.89,10.89,0,0,1,1.29-2.4l.14-.2,0-.1A5.69,5.69,0,0,1,273.8,151.58Z" fill="#dfeaef"></path><path d="M264.82,161.41h-.07c-2.12-.09-3.76-4-3.94-4.49a15.28,15.28,0,0,0-2-3.61,1,1,0,0,1-.11-1,1,1,0,0,1,.84-.59c.69-.05,2.28-.16,3.15,1a3.14,3.14,0,0,1,.45.93,2.6,2.6,0,0,0,.1.25h0a6.23,6.23,0,0,0,1.32,1.39c1.32,1.18,3.14,2.8,2.17,4.74A2.09,2.09,0,0,1,264.82,161.41Zm-2.06-5a8,8,0,0,0,2,3,1.7,1.7,0,0,0,.14-.24c.29-.57-.82-1.56-1.71-2.36C263.05,156.65,262.9,156.52,262.76,156.38Z" fill="#dfeaef"></path><path d="M272.92,165.67a8,8,0,0,1-1.5-.17,20.82,20.82,0,0,1-3.2-.9,2.05,2.05,0,0,1-1.22-1,1.76,1.76,0,0,1,.63-2.14,3.06,3.06,0,0,1,1.43-.47,20.46,20.46,0,0,1,6.1.22,1,1,0,0,1,.73.58,2.25,2.25,0,0,1,.18,1.75,2.86,2.86,0,0,1-1.48,1.75A3.8,3.8,0,0,1,272.92,165.67ZM269.63,163a22.45,22.45,0,0,0,2.18.56,3.25,3.25,0,0,0,1.91,0,.88.88,0,0,0,.4-.43A18.24,18.24,0,0,0,269.63,163Z" fill="#dfeaef"></path><path d="M277.55,155.22a1,1,0,0,1-.16-2,4.25,4.25,0,0,0,.6-.12,1.36,1.36,0,0,0,.33-.14,1,1,0,0,1-.54-.48,34.49,34.49,0,0,1-1.85-4.34,2.42,2.42,0,0,1-.13-1.57,2.06,2.06,0,0,1,2.53-1.23,3.54,3.54,0,0,1,1.71,1.32,6.7,6.7,0,0,1,1.47,4.41,4.44,4.44,0,0,1-2.94,3.95,8.2,8.2,0,0,1-.86.18Zm.19-7.95c0,.08.06.18.07.22a34.67,34.67,0,0,0,1.64,3.88,2.14,2.14,0,0,0,.07-.43,4.7,4.7,0,0,0-1.08-3.06c-.1-.13-.4-.53-.67-.61Z" fill="#dfeaef"></path><path d="M279.89,132.69a2.16,2.16,0,0,1-2-1.1,1,1,0,0,1,.18-1.16,5.26,5.26,0,0,0,1.72-2.55,5,5,0,0,0,0-1.37c0-.17,0-.34-.05-.51h0a4.08,4.08,0,0,1,1.71-3.73,2.33,2.33,0,0,1,2.63.32c2.1,1.61.35,6.3.33,6.35a6.09,6.09,0,0,1-3.13,3.47A3.34,3.34,0,0,1,279.89,132.69Zm1.78-6.87c0,.15,0,.31.05.46a7.09,7.09,0,0,1,0,1.91,5.08,5.08,0,0,1-1,2.21,4.22,4.22,0,0,0,1.72-2.17c.59-1.56.76-3.72.32-4.06s-.41-.17-.45-.15a2.28,2.28,0,0,0-.68,1.8Z" fill="#dfeaef"></path><path d="M297.48,191.74h-.05a1.47,1.47,0,0,1-1.09-.53,2.18,2.18,0,0,1-.45-1.64c.25-2.06,2.15-3.31,3.56-4.07s2.58-1.39,2.95-2.47a3,3,0,0,0,.1-.32,2.52,2.52,0,0,1,1.4-1.89,2.3,2.3,0,0,1,2.65,1.1l.21.32a2,2,0,0,0,.54.64,1,1,0,0,1,.52,1.31,1,1,0,0,1-.37.45,3.82,3.82,0,0,1,0,1,5.48,5.48,0,0,1-2.93,3.91,12.16,12.16,0,0,1-3.27,1,10.87,10.87,0,0,0-2.76.85A2,2,0,0,1,297.48,191.74Zm7-8.65c0,.07,0,.13-.05.18s-.08.28-.13.41c-.62,1.82-2.39,2.77-3.82,3.54a5.18,5.18,0,0,0-2.51,2.24,13.91,13.91,0,0,1,2.83-.82,10.79,10.79,0,0,0,2.75-.85,3.54,3.54,0,0,0,1.9-2.45A2.31,2.31,0,0,0,304.47,183.09Z" fill="#dfeaef"></path><path d="M188.35,117.81a1,1,0,0,1-.34-.06,1,1,0,0,1-.64-.79,6.3,6.3,0,0,1,.31-3.95,3.21,3.21,0,0,1,2.34-1.62,2.36,2.36,0,0,1,2.09.69,1,1,0,0,1,.27.59h0a11.55,11.55,0,0,1,1.09,2.4,1,1,0,0,1,0,.65c-.47,1.29-1.83,1.16-2.57,1.09a4.29,4.29,0,0,0-.61,0,2.68,2.68,0,0,0-1.27.77A1,1,0,0,1,188.35,117.81Zm2.05-4.45h-.1a1.18,1.18,0,0,0-.85.58,2.33,2.33,0,0,0-.25,1.08,2.82,2.82,0,0,1,1-.24,7,7,0,0,1,.9,0l.17,0a9.58,9.58,0,0,0-.59-1.15,1,1,0,0,1-.12-.32Z" fill="#dfeaef"></path><path d="M186.54,111a2.8,2.8,0,0,1-.82-.11,3,3,0,0,1-2.19-2.45,3.83,3.83,0,0,1,1.71-3.64,2.86,2.86,0,0,1,3.35-.11,3.69,3.69,0,0,1,1.09,4h0a3.19,3.19,0,0,1-1.53,1.92A3.31,3.31,0,0,1,186.54,111Zm.54-4.8a1.46,1.46,0,0,0-.76.29,1.82,1.82,0,0,0-.81,1.67,1,1,0,0,0,.77.81,1.15,1.15,0,0,0,.89-.14,1.18,1.18,0,0,0,.58-.69,1.78,1.78,0,0,0-.34-1.83A.51.51,0,0,0,187.08,106.16Zm1.63,2.2h0Z" fill="#dfeaef"></path><path d="M110.92,101.55V221.11c0,2.1-2.13,3.81-4.77,3.81h-4.87c-9.43,0-17.08-6.11-17.08-13.64V89.19c0,7.34,7.45,12.36,16.62,12.36Z" fill="#68e1fd"></path><path d="M106.15,225.92h-4.87c-10,0-18.08-6.57-18.08-14.64V89.19a1,1,0,0,1,2,0c0,6.48,6.72,11.36,15.62,11.36h10.1a1,1,0,0,1,1,1V221.11C111.92,223.76,109.33,225.92,106.15,225.92ZM85.2,95.57V211.28c0,7,7.21,12.64,16.08,12.64h4.87c2.08,0,3.77-1.26,3.77-2.81V102.55h-9.1C93.87,102.55,88.1,99.8,85.2,95.57Z" fill="#093f68"></path><path d="M289.08,101.55V221.11c0,2.1,2.13,3.81,4.77,3.81h4.87c9.43,0,17.08-6.11,17.08-13.64V89.19c0,7.34-7.45,12.36-16.62,12.36Z" fill="#68e1fd"></path><path d="M298.72,225.92h-4.87c-3.18,0-5.77-2.16-5.77-4.81V101.55a1,1,0,0,1,1-1h10.1c8.9,0,15.62-4.88,15.62-11.36a1,1,0,0,1,2,0V211.28C316.8,219.35,308.69,225.92,298.72,225.92Zm-8.64-123.37V221.11c0,1.55,1.69,2.81,3.77,2.81h4.87c8.87,0,16.08-5.67,16.08-12.64V95.57c-2.9,4.23-8.67,7-15.62,7Z" fill="#093f68"></path><path d="M194.13,93a8.3,8.3,0,0,0-8.29,8.29c0,4.59,8.29,20.89,8.29,20.89s8.29-16.3,8.29-20.89A8.29,8.29,0,0,0,194.13,93Zm0,11.51a3.34,3.34,0,1,1,3.33-3.34A3.35,3.35,0,0,1,194.13,104.48Z" fill="#ffbc0e"></path><path d="M194.13,123.15a1,1,0,0,1-.89-.54c-.86-1.69-8.4-16.66-8.4-21.35a9.29,9.29,0,1,1,18.58,0c0,4.69-7.54,19.66-8.4,21.35A1,1,0,0,1,194.13,123.15Zm0-29.18a7.3,7.3,0,0,0-7.29,7.29c0,3.17,4.66,13.29,7.29,18.65,2.64-5.36,7.29-15.48,7.29-18.65A7.3,7.3,0,0,0,194.13,94Zm0,11.51a4.34,4.34,0,1,1,4.33-4.34A4.35,4.35,0,0,1,194.13,105.48Zm0-6.67a2.34,2.34,0,1,0,2.33,2.33A2.33,2.33,0,0,0,194.13,98.81Z" fill="#093f68"></path><path d="M271.51,134.2a8.29,8.29,0,0,0-8.29,8.29c0,4.59,8.29,20.89,8.29,20.89s8.29-16.3,8.29-20.89A8.3,8.3,0,0,0,271.51,134.2Zm0,11.51a3.34,3.34,0,1,1,3.33-3.35A3.34,3.34,0,0,1,271.51,145.71Z" fill="#f56132"></path><path d="M271.51,164.38a1,1,0,0,1-.89-.55c-.86-1.69-8.4-16.65-8.4-21.34a9.29,9.29,0,0,1,18.58,0c0,4.69-7.54,19.65-8.4,21.34A1,1,0,0,1,271.51,164.38Zm0-29.18a7.3,7.3,0,0,0-7.29,7.29c0,3.16,4.65,13.29,7.29,18.65,2.64-5.37,7.29-15.49,7.29-18.65A7.3,7.3,0,0,0,271.51,135.2Zm0,11.51a4.34,4.34,0,1,1,4.33-4.35A4.35,4.35,0,0,1,271.51,146.71Zm0-6.67a2.34,2.34,0,1,0,2.33,2.32A2.33,2.33,0,0,0,271.51,140Z" fill="#093f68"></path><path d="M212.29,150.81A8.29,8.29,0,0,0,204,159.1c0,4.59,8.29,20.89,8.29,20.89s8.28-16.3,8.28-20.89A8.29,8.29,0,0,0,212.29,150.81Zm0,11.51a3.34,3.34,0,1,1,3.32-3.34A3.35,3.35,0,0,1,212.29,162.32Z" fill="#70cc40"></path><path d="M212.29,181a1,1,0,0,1-.9-.55c-.86-1.69-8.39-16.65-8.39-21.34a9.29,9.29,0,1,1,18.57,0c0,4.69-7.53,19.65-8.39,21.34A1,1,0,0,1,212.29,181Zm0-29.18A7.3,7.3,0,0,0,205,159.1c0,3.17,4.65,13.29,7.29,18.65,2.63-5.36,7.28-15.48,7.28-18.65A7.3,7.3,0,0,0,212.29,151.81Zm0,11.51a4.34,4.34,0,1,1,4.32-4.34A4.35,4.35,0,0,1,212.29,163.32Zm0-6.67a2.34,2.34,0,1,0,2.32,2.33A2.34,2.34,0,0,0,212.29,156.65Z" fill="#093f68"></path><path d="M149.81,153.21a1,1,0,0,1-.37-.07,1,1,0,0,1-.56-1.3s.29-.72.84-1.88a1,1,0,0,1,1.81.85c-.52,1.1-.78,1.75-.79,1.77A1,1,0,0,1,149.81,153.21Z" fill="#093f68"></path><path d="M152.61,147.58a1,1,0,0,1-.5-.13,1,1,0,0,1-.37-1.36c.71-1.26,1.48-2.52,2.28-3.73a1,1,0,0,1,1.67,1.1c-.78,1.18-1.52,2.39-2.21,3.61A1,1,0,0,1,152.61,147.58Zm4.73-7.17a1.06,1.06,0,0,1-.61-.2,1,1,0,0,1-.18-1.41c.9-1.17,1.83-2.3,2.79-3.37a1,1,0,0,1,1.49,1.34c-.92,1-1.83,2.12-2.7,3.25A1,1,0,0,1,157.34,140.41Zm5.74-6.38a1,1,0,0,1-.73-.32,1,1,0,0,1,.05-1.41,41.67,41.67,0,0,1,3.35-2.84A1,1,0,1,1,167,131c-1.08.83-2.15,1.75-3.19,2.72A1,1,0,0,1,163.08,134Zm6.82-5.2a1,1,0,0,1-.85-.48,1,1,0,0,1,.34-1.38,35.52,35.52,0,0,1,3.91-2,1,1,0,1,1,.81,1.83,32.5,32.5,0,0,0-3.69,1.93A1.07,1.07,0,0,1,169.9,128.83Zm7.84-3.46a1,1,0,0,1-.28-2,33.63,33.63,0,0,1,4.32-1,1,1,0,1,1,.29,2,29.56,29.56,0,0,0-4,.89A1,1,0,0,1,177.74,125.37Z" fill="#093f68"></path><path d="M188.22,124.16h-.05c-.66,0-1.3,0-1.94,0a1,1,0,0,1-1-1,1,1,0,0,1,1-1c.68,0,1.36,0,2.06,0a1,1,0,0,1,.95,1A1,1,0,0,1,188.22,124.16Z" fill="#093f68"></path><path d="M145.79,123.07a8.29,8.29,0,0,0-8.29,8.29c0,4.59,8.29,20.89,8.29,20.89s8.29-16.3,8.29-20.89A8.3,8.3,0,0,0,145.79,123.07Zm0,11.51a3.34,3.34,0,1,1,3.33-3.34A3.34,3.34,0,0,1,145.79,134.58Z" fill="#f56132"></path><path d="M145.79,153.25a1,1,0,0,1-.89-.54c-.86-1.69-8.4-16.66-8.4-21.35a9.29,9.29,0,1,1,18.58,0c0,4.69-7.54,19.66-8.4,21.35A1,1,0,0,1,145.79,153.25Zm0-29.18a7.3,7.3,0,0,0-7.29,7.29c0,3.17,4.65,13.29,7.29,18.65,2.63-5.36,7.29-15.48,7.29-18.65A7.3,7.3,0,0,0,145.79,124.07Zm0,11.51a4.34,4.34,0,1,1,4.33-4.34A4.34,4.34,0,0,1,145.79,135.58Zm0-6.67a2.34,2.34,0,1,0,2.33,2.33A2.33,2.33,0,0,0,145.79,128.91Z" fill="#093f68"></path><path d="M206.23,178.15a1,1,0,0,1-.55-.16c-1.16-.76-2.28-1.54-3.33-2.33a1,1,0,1,1,1.2-1.6c1,.76,2.1,1.52,3.22,2.25a1,1,0,0,1-.54,1.84Zm-6.39-4.8a1,1,0,0,1-.66-.25c-1-.9-2-1.85-3-2.8a1,1,0,1,1,1.43-1.39c.89.91,1.84,1.81,2.85,2.69a1,1,0,0,1-.66,1.75Zm-5.56-5.74a1,1,0,0,1-.78-.37c-.86-1.08-1.67-2.2-2.4-3.32a1,1,0,1,1,1.68-1.09c.69,1.07,1.46,2.13,2.28,3.16a1,1,0,0,1-.78,1.62ZM190,160.9a1,1,0,0,1-.9-.55,35.73,35.73,0,0,1-1.61-3.78,1,1,0,0,1,1.88-.68,33.85,33.85,0,0,0,1.52,3.57,1,1,0,0,1-.44,1.34A1,1,0,0,1,190,160.9Zm-2.7-7.51a1,1,0,0,1-1-.77,34.41,34.41,0,0,1-.69-4.06,1,1,0,0,1,2-.22,32.57,32.57,0,0,0,.65,3.83,1,1,0,0,1-.75,1.2A.9.9,0,0,1,187.26,153.39Zm-.87-7.93h0a1,1,0,0,1-1-1,37.84,37.84,0,0,1,.23-4.1,1,1,0,1,1,2,.22,36.45,36.45,0,0,0-.21,3.88A1,1,0,0,1,186.39,145.46Zm.85-7.94-.21,0a1,1,0,0,1-.77-1.19,40.4,40.4,0,0,1,1-4,1,1,0,0,1,1.91.59c-.39,1.25-.71,2.52-1,3.78A1,1,0,0,1,187.24,137.52Zm2.34-7.64a1.08,1.08,0,0,1-.38-.08,1,1,0,0,1-.54-1.3,33.46,33.46,0,0,1,1.79-3.75,1,1,0,0,1,1.72,1,30.81,30.81,0,0,0-1.66,3.49A1,1,0,0,1,189.58,129.88Z" fill="#093f68"></path><path d="M218.37,177.91a.84.84,0,0,1-.27,0,1,1,0,0,1-.69-1.23,29.13,29.13,0,0,1,1.52-3.89,1,1,0,0,1,1.32-.49,1,1,0,0,1,.49,1.33,26.34,26.34,0,0,0-1.4,3.59A1,1,0,0,1,218.37,177.91Zm3.34-7.27a1,1,0,0,1-.51-.15,1,1,0,0,1-.34-1.37,34.44,34.44,0,0,1,2.34-3.39,1,1,0,1,1,1.57,1.23,32.24,32.24,0,0,0-2.2,3.2A1,1,0,0,1,221.71,170.64Zm4.94-6.28a1,1,0,0,1-.71-.3,1,1,0,0,1,0-1.41,26.62,26.62,0,0,1,3.18-2.67,1,1,0,0,1,1.16,1.63,25.24,25.24,0,0,0-3,2.47A1,1,0,0,1,226.65,164.36Zm41-1.6a1,1,0,0,1-.64-.23,17.57,17.57,0,0,0-3.17-2.05,1,1,0,1,1,.91-1.77,18.67,18.67,0,0,1,3.54,2.29,1,1,0,0,1,.13,1.41A1,1,0,0,1,267.61,162.76Zm-34.46-3a1,1,0,0,1-.44-1.9,24.76,24.76,0,0,1,3.89-1.49,1,1,0,0,1,1.24.69,1,1,0,0,1-.69,1.23,22.56,22.56,0,0,0-3.56,1.37A1,1,0,0,1,233.15,159.76Zm27.42-.71a1.25,1.25,0,0,1-.32-.05,34,34,0,0,0-3.74-1,1,1,0,0,1,.41-1.95,33.89,33.89,0,0,1,4,1.07,1,1,0,0,1-.32,2Zm-19.77-1.5a1,1,0,0,1-.13-2h0c1.37-.16,2.73-.28,4-.35a1,1,0,1,1,.1,2c-1.27.07-2.58.18-3.91.33Zm12-.16h-.11c-1.26-.13-2.57-.21-3.91-.24a1,1,0,0,1-1-1,1,1,0,0,1,1-1c1.38,0,2.76.12,4.07.26a1,1,0,0,1-.1,2Z" fill="#093f68"></path><rect x="226.22" y="183.97" width="34.13" height="31.84" fill="#fff"></rect><path d="M260.36,216.81H226.22a1,1,0,0,1-1-1V184a1,1,0,0,1,1-1h34.14a1,1,0,0,1,1,1v31.84A1,1,0,0,1,260.36,216.81Zm-33.14-2h32.14V185H227.22Z" fill="#093f68"></path><path d="M254.69,192.47H237.07a1,1,0,0,1,0-2h17.62a1,1,0,0,1,0,2Z" fill="#dfeaef"></path><path d="M254.69,198.37h-4.54a1,1,0,1,1,0-2h4.54a1,1,0,0,1,0,2Z" fill="#dfeaef"></path><path d="M244.57,198.37H231.9a1,1,0,1,1,0-2h12.67a1,1,0,0,1,0,2Z" fill="#dfeaef"></path><path d="M254.69,204.27H231.9a1,1,0,0,1,0-2h22.79a1,1,0,0,1,0,2Z" fill="#dfeaef"></path><path d="M246.61,210.17H231.9a1,1,0,0,1,0-2h14.71a1,1,0,0,1,0,2Z" fill="#dfeaef"></path><circle cx="243.29" cy="183.97" r="3.25" fill="#68e1fd"></circle><path d="M243.29,188.22a4.25,4.25,0,1,1,4.25-4.25A4.25,4.25,0,0,1,243.29,188.22Zm0-6.5a2.25,2.25,0,1,0,2.25,2.25A2.25,2.25,0,0,0,243.29,181.72Z" fill="#093f68"></path><rect x="235.42" y="88.77" width="30.8" height="28.73" fill="#fff"></rect><path d="M266.22,118.5h-30.8a1,1,0,0,1-1-1V88.77a1,1,0,0,1,1-1h30.8a1,1,0,0,1,1,1V117.5A1,1,0,0,1,266.22,118.5Zm-29.8-2h28.8V89.77h-28.8Z" fill="#093f68"></path><path d="M261.1,98.35H243.24a1,1,0,0,1,0-2H261.1a1,1,0,0,1,0,2Z" fill="#dfeaef"></path><path d="M261.1,105.43H253a1,1,0,0,1,0-2h8.15a1,1,0,0,1,0,2Z" fill="#dfeaef"></path><path d="M247.18,105.43h-6.64a1,1,0,0,1,0-2h6.64a1,1,0,0,1,0,2Z" fill="#dfeaef"></path><path d="M253.82,112.51H240.54a1,1,0,0,1,0-2h13.28a1,1,0,0,1,0,2Z" fill="#dfeaef"></path><circle cx="250.82" cy="88.77" r="2.94" fill="#68e1fd"></circle><path d="M250.82,92.71a3.94,3.94,0,1,1,3.94-3.94A3.95,3.95,0,0,1,250.82,92.71Zm0-5.87a1.94,1.94,0,1,0,1.94,1.93A1.94,1.94,0,0,0,250.82,86.84Z" fill="#093f68"></path><rect x="148.19" y="168.62" width="26.23" height="24.47" fill="#fff"></rect><path d="M174.42,194.08H148.19a1,1,0,0,1-1-1V168.62a1,1,0,0,1,1-1h26.23a1,1,0,0,1,1,1v24.46A1,1,0,0,1,174.42,194.08Zm-25.23-2h24.23V169.62H149.19Z" fill="#093f68"></path><path d="M170.06,176.92H154.85a1,1,0,0,1,0-2h15.21a1,1,0,0,1,0,2Z" fill="#dfeaef"></path><path d="M170.06,183h-6.94a1,1,0,0,1,0-2h6.94a1,1,0,0,1,0,2Z" fill="#dfeaef"></path><path d="M158.21,183h-5.66a1,1,0,0,1,0-2h5.66a1,1,0,0,1,0,2Z" fill="#dfeaef"></path><path d="M163.86,189H152.55a1,1,0,0,1,0-2h11.31a1,1,0,0,1,0,2Z" fill="#dfeaef"></path><circle cx="161.31" cy="168.62" r="2.5" fill="#68e1fd"></circle><path d="M161.31,172.12a3.5,3.5,0,1,1,3.5-3.5A3.5,3.5,0,0,1,161.31,172.12Zm0-5a1.5,1.5,0,1,0,1.5,1.5A1.5,1.5,0,0,0,161.31,167.12Z" fill="#093f68"></path></g></svg>